#!OML:ASF H:\Terrain\Walking\May29\JustinRory\Justin.ASF
:FULLY-SPECIFIED
:DEGREES
1105
root 7.27418 16.1949 -16.3328 4.31068 -5.47353 -2.49328
lowerback 13.7178 0.434594 -0.131104
upperback 0.41366 0.788633 3.12835
thorax -7.31935 0.444346 3.24821
lowerneck -17.3531 -1.47692 -8.20983
upperneck 10.9247 -0.488637 3.14056
head 6.17656 -0.328403 2.28292
rclavicle 4.27387e-015 -3.18055e-015
rhumerus -18.7433 11.8251 -50.2337
rradius 100.955
rwrist -6.19268
rhand -10.9888 39.6021
rfingers 7.12502
rthumb 15.0313 10.1678
lclavicle 4.27387e-015 -3.18055e-015
lhumerus -24.9933 -2.54512 67.1196
lradius 120.523
lwrist 7.63919
lhand -12.7131 27.7356
lfingers 7.12502
lthumb 13.3698 57.2867
rfemur -29.7277 -7.19979 23.0974
rtibia 55.7692
rfoot -26.2164 -7.51112
rtoes -6.45139
lfemur -27.747 13.8989 -12.0111
ltibia 55.5339
lfoot -29.3567 -3.04211
ltoes -20.7608
1106
root 7.23265 16.1217 -16.3675 4.15314 -3.63652 -2.95179
lowerback 14.2729 -0.0912685 -0.316537
upperback 0.548042 0.108961 3.68046
thorax -7.44962 0.131108 4.08982
lowerneck -17.7728 -1.2325 -8.00868
upperneck 11.2351 -0.217628 3.43842
head 6.32834 -0.16604 2.37884
rclavicle -1.22253e-014 2.70347e-014
rhumerus -18.824 10.0512 -49.9877
rradius 100.689
rwrist -5.95993
rhand -10.8896 38.9352
rfingers 7.12502
rthumb 15.1268 9.50804
lclavicle -1.22253e-014 2.70347e-014
lhumerus -23.4472 -2.3504 66.1548
lradius 120.148
lwrist 7.90208
lhand -13.1484 27.675
lfingers 7.12502
lthumb 12.9501 57.2531
rfemur -30.0277 -8.79988 23.8467
rtibia 56.7179
rfoot -26.6966 -8.02665
rtoes -7.10786
lfemur -28.8676 13.1262 -11.3335
ltibia 56.9458
lfoot -29.6747 -4.02421
ltoes -19.9619
1107
root 7.19684 16.0482 -16.3918 4.10181 -1.89835 -3.0569
lowerback 14.62 -0.590657 -0.795243
upperback 0.637801 -0.596515 4.10085
thorax -7.48695 -0.187202 4.97132
lowerneck -17.6261 -1.40403 -8.27533
upperneck 10.6285 -0.363591 3.23612
head 6.11892 -0.255282 2.33532
rclavicle -7.15625e-015 -4.92986e-014
rhumerus -19.038 8.40263 -49.9211
rradius 100.559
rwrist -5.91109
rhand -11.4334 39.1447
rfingers 7.12502
rthumb 14.6029 9.67875
lclavicle -7.15625e-015 -4.92986e-014
lhumerus -21.8727 -2.08083 65.3338
lradius 119.63
lwrist 7.94722
lhand -13.2779 27.7092
lfingers 7.12502
lthumb 12.8253 57.2952
rfemur -30.5485 -10.4161 24.1522
rtibia 57.7211
rfoot -27.2277 -8.32452
rtoes -7.59948
lfemur -30.1593 12.139 -11.1257
ltibia 58.3232
lfoot -29.9133 -4.59829
ltoes -20.1925
1108
root 7.15893 15.9741 -16.4082 4.32841 -0.214772 -3.61468
lowerback 14.6857 -1.06286 -0.791314
upperback 0.634852 -1.17866 4.64368
thorax -7.46338 -0.460588 5.68293
lowerneck -17.618 -1.45412 -8.45592
upperneck 10.345 -0.4059 3.3646
head 6.02987 -0.267258 2.39938
rclavicle -3.43897e-014 6.36111e-015
rhumerus -19.3708 6.76173 -49.8982
rradius 100.5
rwrist -6.07058
rhand -12.0773 39.052
rfingers 7.12502
rthumb 13.9826 9.54228
lclavicle -3.43897e-014 6.36111e-015
lhumerus -20.615 -1.75669 64.6429
lradius 119.266
lwrist 7.96901
lhand -13.2818 27.8379
lfingers 7.12502
lthumb 12.8216 57.4241
rfemur -31.3273 -11.8226 25.0166
rtibia 58.6996
rfoot -27.7873 -8.61212
rtoes -7.48523
lfemur -31.7261 11.3697 -10.4451
ltibia 59.642
lfoot -30.137 -5.27665
ltoes -20.2528
1109
root 7.11852 15.8973 -16.4362 4.59415 1.75824 -4.37952
lowerback 14.8486 -1.58593 -0.465136
upperback 0.551665 -1.76617 5.20964
thorax -7.57719 -0.742983 6.24767
lowerneck -18.0986 -1.59007 -8.35881
upperneck 10.6454 -0.572496 3.38275
head 6.21446 -0.344809 2.37555
rclavicle 2.72335e-014 -2.94201e-014
rhumerus -19.9072 4.96707 -49.8426
rradius 100.469
rwrist -6.3496
rhand -12.5632 39.1129
rfingers 7.12502
rthumb 13.5142 9.57142
lclavicle 2.72335e-014 -2.94201e-014
lhumerus -19.4343 -1.59024 63.9055
lradius 118.974
lwrist 8.04641
lhand -13.259 28.1017
lfingers 7.12502
lthumb 12.8436 57.6866
rfemur -32.1944 -13.3983 26.2013
rtibia 59.6312
rfoot -28.2617 -9.05355
rtoes -7.39365
lfemur -33.3576 10.5221 -9.5111
ltibia 60.8656
lfoot -30.5492 -6.33364
ltoes -18.7703
1110
root 7.07947 15.8224 -16.474 4.77544 3.72801 -5.17801
lowerback 15.1708 -2.13934 -0.250452
upperback 0.445032 -2.39171 5.93261
thorax -7.78435 -1.03327 7.07815
lowerneck -18.651 -1.74258 -8.43601
upperneck 11.1131 -0.684751 3.2212
head 6.46264 -0.421655 2.32713
rclavicle 8.74653e-015 -1.59028e-015
rhumerus -20.4061 3.46001 -49.5882
rradius 100.624
rwrist -6.68334
rhand -12.8571 39.3166
rfingers 7.12502
rthumb 13.2309 9.75646
lclavicle 8.74653e-015 -1.59028e-015
lhumerus -18.3759 -1.28933 63.4251
lradius 118.431
lwrist 7.88945
lhand -13.6399 28.4229
lfingers 7.12502
lthumb 12.4763 58.0305
rfemur -33.086 -14.9728 27.4594
rtibia 60.4852
rfoot -28.7036 -9.5716
rtoes -7.63019
lfemur -34.9177 9.56023 -8.50653
ltibia 61.9999
lfoot -30.9205 -7.37046
ltoes -16.9344
1111
root 7.03888 15.7672 -16.4975 4.84076 5.39357 -5.75597
lowerback 15.4427 -2.59812 -0.339389
upperback 0.492295 -2.95228 6.63804
thorax -7.77672 -1.28957 8.0516
lowerneck -18.7487 -1.76171 -8.7491
upperneck 10.7743 -0.629389 3.28187
head 6.36716 -0.395988 2.40051
rclavicle -3.4191e-014 -4.37326e-014
rhumerus -20.6948 2.07809 -49.339
rradius 101.005
rwrist -7.04993
rhand -13.2176 39.1855
rfingers 7.12502
rthumb 12.8834 9.60314
lclavicle -3.4191e-014 -4.37326e-014
lhumerus -17.431 -0.831973 62.9793
lradius 117.829
lwrist 7.8174
lhand -14.4871 28.7503
lfingers 7.12502
lthumb 11.6594 58.4059
rfemur -33.7558 -16.3501 28.4168
rtibia 61.2408
rfoot -29.2382 -9.82327
rtoes -7.11985
lfemur -36.228 8.76396 -7.74852
ltibia 63.0057
lfoot -30.9626 -8.12368
ltoes -17.2486
1112
root 7.00384 15.7157 -16.5123 4.82456 6.84879 -6.22767
lowerback 15.7403 -2.96743 -0.316323
upperback 0.626547 -3.39069 7.16179
thorax -7.70655 -1.49826 8.73567
lowerneck -18.8505 -1.77931 -8.83633
upperneck 10.1807 -0.629 3.34512
head 6.19224 -0.381287 2.43079
rclavicle -1.5704e-014 6.52014e-014
rhumerus -21.0125 0.652285 -49.2291
rradius 101.504
rwrist -7.45041
rhand -13.4936 39.4226
rfingers 7.12502
rthumb 12.6173 9.8237
lclavicle -1.5704e-014 6.52014e-014
lhumerus -16.3054 -0.515983 62.4384
lradius 117.226
lwrist 7.87782
lhand -15.0326 29.112
lfingers 7.12502
lthumb 11.1333 58.7966
rfemur -34.3009 -17.624 29.1958
rtibia 61.9498
rfoot -29.7272 -9.99783
rtoes -6.83029
lfemur -37.2899 8.11526 -7.13694
ltibia 63.9041
lfoot -31.0216 -8.75983
ltoes -18.3649
1113
root 6.97108 15.6551 -16.5346 4.93134 8.06719 -6.96152
lowerback 16.0299 -3.28431 -0.0664847
upperback 0.631426 -3.70616 7.72961
thorax -7.79505 -1.64629 9.32865
lowerneck -19.1602 -1.76226 -8.70785
upperneck 10.0535 -0.581067 3.15409
head 6.19718 -0.364671 2.35236
rclavicle 1.39149e-015 -5.725e-014
rhumerus -21.3776 -0.475966 -49.0885
rradius 101.976
rwrist -7.69519
rhand -13.6015 40.0194
rfingers 7.12502
rthumb 12.5133 10.4141
lclavicle 1.39149e-015 -5.725e-014
lhumerus -15.3493 -0.168785 61.9406
lradius 116.597
lwrist 8.05519
lhand -15.2838 29.2954
lfingers 7.12502
lthumb 10.891 58.993
rfemur -35.1022 -18.5963 30.3422
rtibia 62.6296
rfoot -30.1119 -10.2755
rtoes -6.52324
lfemur -38.4807 7.65108 -6.22913
ltibia 64.7522
lfoot -31.1672 -9.4995
ltoes -18.1436
